
<svg xmlns="http://www.w3.org/2000/svg"
     xmlns:xlink="http://www.w3.org/1999/xlink" version="1.1" width="268"
     height="255">
    <defs/>
    <g transform=" scale(1) translate(-356.5,-226)">
        <rect x="399" y="329" width="2" height="2" fill="#000000" stroke="none"
              pointer-events="none"/>
        <rect x="399" y="409" width="2" height="2" fill="#000000" stroke="none"
              pointer-events="none"/>
        <path d="M 375 340 L 425 340 L 425 400 L 375 400 Z" fill="#ffffff"
              stroke="#000000" stroke-width="2" stroke-linejoin="round"
              stroke-linecap="round" stroke-miterlimit="10"
              pointer-events="none"/>
        <path d="M 382 350 C 392 350 392 350 392 350" fill="none"
              stroke="#000000" stroke-width="1.5" stroke-linecap="round"
              stroke-miterlimit="10" pointer-events="none"/>
        <path d="M 387 345 C 387 355 387 355 387 355" fill="none"
              stroke="#000000" stroke-width="1.5" stroke-linecap="round"
              stroke-miterlimit="10" pointer-events="none"/>
        <path d="M 382 358.53 C 418 358.53 418 358.53 418 358.53" fill="none"
              stroke="#000000" stroke-width="2" stroke-linecap="round"
              stroke-miterlimit="10" pointer-events="none"/>
        <path d="M 391 366 C 409 366 409 366 409 366" fill="none"
              stroke="#000000" stroke-width="2" stroke-linecap="round"
              stroke-miterlimit="10" pointer-events="none"/>
        <path d="M 382 374.53 C 418 374.53 418 374.53 418 374.53" fill="none"
              stroke="#000000" stroke-width="2" stroke-linecap="round"
              stroke-miterlimit="10" pointer-events="none"/>
        <path d="M 391 382 C 409 382 409 382 409 382" fill="none"
              stroke="#000000" stroke-width="2" stroke-linecap="round"
              stroke-miterlimit="10" pointer-events="none"/>
        <path d="M 400 331 L 400 358" fill="none" stroke="#000000"
              stroke-width="2" stroke-linejoin="round" stroke-linecap="square"
              stroke-miterlimit="10" pointer-events="none"/>
        <path d="M 400 382 L 400 409" fill="none" stroke="#000000"
              stroke-width="2" stroke-linecap="square" stroke-miterlimit="10"
              pointer-events="none"/>
        <rect x="361" y="346" width="9" height="13" fill-opacity="0"
              fill="#dae2f2" stroke="none" pointer-events="none"/>
        <g fill="#000000" font-family="Arial,Helvetica" font-weight="bold"
           text-anchor="middle" font-size="12px">
            <text x="365.5" y="357.5">
                V
            </text>
        </g>
        <rect x="529" y="269" width="2" height="2" fill="#000000" stroke="none"
              pointer-events="none"/>
        <rect x="529" y="329" width="2" height="2" fill="#000000" stroke="none"
              pointer-events="none"/>
        <path d="M 530 282 L 537 285 L 530 288" fill="none" stroke="#000000"
              stroke-width="2" stroke-linejoin="round" stroke-linecap="round"
              stroke-miterlimit="10" pointer-events="none"/>
        <path d="M 530 288 L 523 291 L 530 294" fill="none" stroke="#000000"
              stroke-width="2" stroke-linejoin="round" stroke-linecap="round"
              stroke-miterlimit="10" pointer-events="none"/>
        <path d="M 530 294 L 537 297 L 530 300" fill="none" stroke="#000000"
              stroke-width="2" stroke-linejoin="round" stroke-linecap="round"
              stroke-miterlimit="10" pointer-events="none"/>
        <path d="M 530 300 L 523 303 L 530 306" fill="none" stroke="#000000"
              stroke-width="2" stroke-linejoin="round" stroke-linecap="round"
              stroke-miterlimit="10" pointer-events="none"/>
        <path d="M 530 306 L 537 309 L 530 312" fill="none" stroke="#000000"
              stroke-width="2" stroke-linejoin="round" stroke-linecap="round"
              stroke-miterlimit="10" pointer-events="none"/>
        <path d="M 530 312 L 523 315 L 530 318" fill="none" stroke="#000000"
              stroke-width="2" stroke-linejoin="round" stroke-linecap="round"
              stroke-miterlimit="10" pointer-events="none"/>
        <path d="M 530 271 L 530 281" fill="#000000" stroke="#000000"
              stroke-width="2" stroke-linecap="square" stroke-miterlimit="10"
              pointer-events="none"/>
        <path d="M 530 319 L 530 329" fill="#000000" stroke="#000000"
              stroke-width="2" stroke-linecap="square" stroke-miterlimit="10"
              pointer-events="none"/>
        <rect x="504" y="270" width="16" height="13" fill-opacity="0"
              fill="#dae2f2" stroke="none" pointer-events="none"/>
        <g fill="#000000" font-family="Arial,Helvetica" font-weight="bold"
           text-anchor="middle" font-size="12px">
            <text x="512" y="281.5">
                R1
            </text>
        </g>
        <rect x="529" y="409" width="2" height="2" fill="#000000" stroke="none"
              pointer-events="none"/>
        <rect x="529" y="469" width="2" height="2" fill="#000000" stroke="none"
              pointer-events="none"/>
        <path d="M 530 422 L 537 425 L 530 428" fill="none" stroke="#000000"
              stroke-width="2" stroke-linejoin="round" stroke-linecap="round"
              stroke-miterlimit="10" pointer-events="none"/>
        <path d="M 530 428 L 523 431 L 530 434" fill="none" stroke="#000000"
              stroke-width="2" stroke-linejoin="round" stroke-linecap="round"
              stroke-miterlimit="10" pointer-events="none"/>
        <path d="M 530 434 L 537 437 L 530 440" fill="none" stroke="#000000"
              stroke-width="2" stroke-linejoin="round" stroke-linecap="round"
              stroke-miterlimit="10" pointer-events="none"/>
        <path d="M 530 440 L 523 443 L 530 446" fill="none" stroke="#000000"
              stroke-width="2" stroke-linejoin="round" stroke-linecap="round"
              stroke-miterlimit="10" pointer-events="none"/>
        <path d="M 530 446 L 537 449 L 530 452" fill="none" stroke="#000000"
              stroke-width="2" stroke-linejoin="round" stroke-linecap="round"
              stroke-miterlimit="10" pointer-events="none"/>
        <path d="M 530 452 L 523 455 L 530 458" fill="none" stroke="#000000"
              stroke-width="2" stroke-linejoin="round" stroke-linecap="round"
              stroke-miterlimit="10" pointer-events="none"/>
        <path d="M 530 411 L 530 421" fill="#000000" stroke="#000000"
              stroke-width="2" stroke-linecap="square" stroke-miterlimit="10"
              pointer-events="none"/>
        <path d="M 530 459 L 530 469" fill="#000000" stroke="#000000"
              stroke-width="2" stroke-linecap="square" stroke-miterlimit="10"
              pointer-events="none"/>
        <rect x="504" y="410" width="16" height="13" fill-opacity="0"
              fill="#dae2f2" stroke="none" pointer-events="none"/>
        <g fill="#000000" font-family="Arial,Helvetica" font-weight="bold"
           text-anchor="middle" font-size="12px">
            <text x="512" y="421.5">
                R2
            </text>
        </g>
        <path d="M 400 330 L 400 270 L 528 270" fill="none" stroke="#000000"
              stroke-width="2" stroke-miterlimit="10" pointer-events="none"/>
        <ellipse cx="530" cy="270" rx="2" ry="2" fill="#000000" stroke="#000000"
                 stroke-width="2" pointer-events="none"/>
        <path d="M 530 332 L 530 410" fill="none" stroke="#000000"
              stroke-width="2" stroke-miterlimit="10" pointer-events="none"/>
        <ellipse cx="530" cy="330" rx="2" ry="2" fill="#000000" stroke="#000000"
                 stroke-width="2" pointer-events="none"/>
        <path d="M 528 470 L 400 470 L 400 410" fill="none" stroke="#000000"
              stroke-width="2" stroke-miterlimit="10" pointer-events="none"/>
        <ellipse cx="530" cy="470" rx="2" ry="2" fill="#000000" stroke="#000000"
                 stroke-width="2" pointer-events="none"/>
        <rect x="599" y="269" width="2" height="2" fill="#000000" stroke="none"
              pointer-events="none"/>
        <rect x="599" y="329" width="2" height="2" fill="#000000" stroke="none"
              pointer-events="none"/>
        <ellipse cx="600" cy="299.8" rx="18.99984629" ry="18.99984629"
                 fill="#ffffff" stroke="#000000" stroke-width="2"
                 pointer-events="none"/>
        <path d="M 600 271 L 600 280" fill="none" stroke="#000000"
              stroke-width="2" stroke-linecap="square" stroke-miterlimit="10"
              pointer-events="none"/>
        <path d="M 600 320 L 600 329" fill="none" stroke="#000000"
              stroke-width="2" stroke-linecap="square" stroke-miterlimit="10"
              pointer-events="none"/>
        <g fill="#000000" font-family="Arial,Helvetica" text-anchor="middle"
           font-size="24px">
            <text x="600" y="306">
                V
            </text>
        </g>
        <rect x="555" y="270" width="25" height="13" fill-opacity="0"
              fill="#dae2f2" stroke="none" pointer-events="none"/>
        <g fill="#000000" font-family="Arial,Helvetica" font-weight="bold"
           text-anchor="middle" font-size="12px">
            <text x="567.5" y="281.5">
                VR1
            </text>
        </g>
        <rect x="599" y="409" width="2" height="2" fill="#000000" stroke="none"
              pointer-events="none"/>
        <rect x="599" y="469" width="2" height="2" fill="#000000" stroke="none"
              pointer-events="none"/>
        <ellipse cx="600" cy="439.8" rx="18.99984629" ry="18.99984629"
                 fill="#ffffff" stroke="#000000" stroke-width="2"
                 pointer-events="none"/>
        <path d="M 600 411 L 600 420" fill="none" stroke="#000000"
              stroke-width="2" stroke-linecap="square" stroke-miterlimit="10"
              pointer-events="none"/>
        <path d="M 600 460 L 600 469" fill="none" stroke="#000000"
              stroke-width="2" stroke-linecap="square" stroke-miterlimit="10"
              pointer-events="none"/>
        <g fill="#000000" font-family="Arial,Helvetica" text-anchor="middle"
           font-size="24px">
            <text x="600" y="446">
                V
            </text>
        </g>
        <rect x="555" y="410" width="25" height="13" fill-opacity="0"
              fill="#dae2f2" stroke="none" pointer-events="none"/>
        <g fill="#000000" font-family="Arial,Helvetica" font-weight="bold"
           text-anchor="middle" font-size="12px">
            <text x="567.5" y="421.5">
                VR2
            </text>
        </g>
        <path d="M 600 330 L 532 330" fill="none" stroke="#000000"
              stroke-width="2" stroke-miterlimit="10" pointer-events="none"/>
        <ellipse cx="530" cy="330" rx="2" ry="2" fill="#000000" stroke="#000000"
                 stroke-width="2" pointer-events="none"/>
        <path d="M 600 270 L 532 270" fill="none" stroke="#000000"
              stroke-width="2" stroke-miterlimit="10" pointer-events="none"/>
        <ellipse cx="530" cy="270" rx="2" ry="2" fill="#000000" stroke="#000000"
                 stroke-width="2" pointer-events="none"/>
        <path d="M 600 410 L 532 410" fill="none" stroke="#000000"
              stroke-width="2" stroke-miterlimit="10" pointer-events="none"/>
        <ellipse cx="530" cy="410" rx="2" ry="2" fill="#000000" stroke="#000000"
                 stroke-width="2" pointer-events="none"/>
        <path d="M 600 470 L 532 470" fill="none" stroke="#000000"
              stroke-width="2" stroke-miterlimit="10" pointer-events="none"/>
        <ellipse cx="530" cy="470" rx="2" ry="2" fill="#000000" stroke="#000000"
                 stroke-width="2" pointer-events="none"/>
        <rect x="489" y="269" width="2" height="2" fill="#000000" stroke="none"
              pointer-events="none"/>
        <rect x="429" y="269" width="2" height="2" fill="#000000" stroke="none"
              pointer-events="none"/>
        <rect x="489" y="269" width="2" height="2" fill="#000000" stroke="none"
              pointer-events="none"/>
        <ellipse cx="460.31" cy="269.9" rx="18.99984629" ry="18.99984629"
                 fill="#ffffff" stroke="#000000" stroke-width="2"
                 pointer-events="none"/>
        <path d="M 480 270 L 489 270" fill="none" stroke="#000000"
              stroke-width="2" stroke-linecap="square" stroke-miterlimit="10"
              pointer-events="none"/>
        <path d="M 431 270 L 440 270" fill="none" stroke="#000000"
              stroke-width="2" stroke-linecap="square" stroke-miterlimit="10"
              pointer-events="none"/>
        <path d="M 480 270 L 489 270" fill="none" stroke="#000000"
              stroke-width="2" stroke-linecap="square" stroke-miterlimit="10"
              pointer-events="none"/>
        <g fill="#000000" font-family="Arial,Helvetica" text-anchor="middle"
           font-size="24px">
            <text x="461.29" y="275.13">
                A
            </text>
        </g>
        <rect x="460" y="230" width="2" height="13" fill-opacity="0"
              fill="#dae2f2" stroke="none" pointer-events="none"/>
        <g fill="#000000" font-family="Arial,Helvetica" font-weight="bold"
           text-anchor="middle" font-size="12px">
            <text x="461" y="241.5">
                I
            </text>
        </g>
    </g>
</svg>