
<svg xmlns="http://www.w3.org/2000/svg"
     xmlns:xlink="http://www.w3.org/1999/xlink" version="1.1" width="188"
     height="216">
    <defs/>
    <g transform=" scale(1) translate(-356.5,-262)">
        <rect x="399" y="329" width="2" height="2" fill="#000000" stroke="none"
              pointer-events="none"/>
        <rect x="399" y="409" width="2" height="2" fill="#000000" stroke="none"
              pointer-events="none"/>
        <path d="M 375 340 L 425 340 L 425 400 L 375 400 Z" fill="#ffffff"
              stroke="#000000" stroke-width="2" stroke-linejoin="round"
              stroke-linecap="round" stroke-miterlimit="10"
              pointer-events="none"/>
        <path d="M 382 350 C 392 350 392 350 392 350" fill="none"
              stroke="#000000" stroke-width="1.5" stroke-linecap="round"
              stroke-miterlimit="10" pointer-events="none"/>
        <path d="M 387 345 C 387 355 387 355 387 355" fill="none"
              stroke="#000000" stroke-width="1.5" stroke-linecap="round"
              stroke-miterlimit="10" pointer-events="none"/>
        <path d="M 382 358.53 C 418 358.53 418 358.53 418 358.53" fill="none"
              stroke="#000000" stroke-width="2" stroke-linecap="round"
              stroke-miterlimit="10" pointer-events="none"/>
        <path d="M 391 366 C 409 366 409 366 409 366" fill="none"
              stroke="#000000" stroke-width="2" stroke-linecap="round"
              stroke-miterlimit="10" pointer-events="none"/>
        <path d="M 382 374.53 C 418 374.53 418 374.53 418 374.53" fill="none"
              stroke="#000000" stroke-width="2" stroke-linecap="round"
              stroke-miterlimit="10" pointer-events="none"/>
        <path d="M 391 382 C 409 382 409 382 409 382" fill="none"
              stroke="#000000" stroke-width="2" stroke-linecap="round"
              stroke-miterlimit="10" pointer-events="none"/>
        <path d="M 400 331 L 400 358" fill="none" stroke="#000000"
              stroke-width="2" stroke-linejoin="round" stroke-linecap="square"
              stroke-miterlimit="10" pointer-events="none"/>
        <path d="M 400 382 L 400 409" fill="none" stroke="#000000"
              stroke-width="2" stroke-linecap="square" stroke-miterlimit="10"
              pointer-events="none"/>
        <rect x="361" y="346" width="9" height="13" fill-opacity="0"
              fill="#dae2f2" stroke="none" pointer-events="none"/>
        <g fill="#000000" font-family="Arial,Helvetica" font-weight="bold"
           text-anchor="middle" font-size="12px">
            <text x="365.5" y="357.5">
                V
            </text>
        </g>
        <rect x="529" y="269" width="2" height="2" fill="#000000" stroke="none"
              pointer-events="none"/>
        <rect x="529" y="329" width="2" height="2" fill="#000000" stroke="none"
              pointer-events="none"/>
        <path d="M 530 282 L 537 285 L 530 288" fill="none" stroke="#000000"
              stroke-width="2" stroke-linejoin="round" stroke-linecap="round"
              stroke-miterlimit="10" pointer-events="none"/>
        <path d="M 530 288 L 523 291 L 530 294" fill="none" stroke="#000000"
              stroke-width="2" stroke-linejoin="round" stroke-linecap="round"
              stroke-miterlimit="10" pointer-events="none"/>
        <path d="M 530 294 L 537 297 L 530 300" fill="none" stroke="#000000"
              stroke-width="2" stroke-linejoin="round" stroke-linecap="round"
              stroke-miterlimit="10" pointer-events="none"/>
        <path d="M 530 300 L 523 303 L 530 306" fill="none" stroke="#000000"
              stroke-width="2" stroke-linejoin="round" stroke-linecap="round"
              stroke-miterlimit="10" pointer-events="none"/>
        <path d="M 530 306 L 537 309 L 530 312" fill="none" stroke="#000000"
              stroke-width="2" stroke-linejoin="round" stroke-linecap="round"
              stroke-miterlimit="10" pointer-events="none"/>
        <path d="M 530 312 L 523 315 L 530 318" fill="none" stroke="#000000"
              stroke-width="2" stroke-linejoin="round" stroke-linecap="round"
              stroke-miterlimit="10" pointer-events="none"/>
        <path d="M 530 271 L 530 281" fill="#000000" stroke="#000000"
              stroke-width="2" stroke-linecap="square" stroke-miterlimit="10"
              pointer-events="none"/>
        <path d="M 530 319 L 530 329" fill="#000000" stroke="#000000"
              stroke-width="2" stroke-linecap="square" stroke-miterlimit="10"
              pointer-events="none"/>
        <rect x="504" y="270" width="16" height="13" fill-opacity="0"
              fill="#dae2f2" stroke="none" pointer-events="none"/>
        <g fill="#000000" font-family="Arial,Helvetica" font-weight="bold"
           text-anchor="middle" font-size="12px">
            <text x="512" y="281.5">
                R1
            </text>
        </g>
        <rect x="529" y="409" width="2" height="2" fill="#000000" stroke="none"
              pointer-events="none"/>
        <rect x="529" y="469" width="2" height="2" fill="#000000" stroke="none"
              pointer-events="none"/>
        <path d="M 530 422 L 537 425 L 530 428" fill="none" stroke="#000000"
              stroke-width="2" stroke-linejoin="round" stroke-linecap="round"
              stroke-miterlimit="10" pointer-events="none"/>
        <path d="M 530 428 L 523 431 L 530 434" fill="none" stroke="#000000"
              stroke-width="2" stroke-linejoin="round" stroke-linecap="round"
              stroke-miterlimit="10" pointer-events="none"/>
        <path d="M 530 434 L 537 437 L 530 440" fill="none" stroke="#000000"
              stroke-width="2" stroke-linejoin="round" stroke-linecap="round"
              stroke-miterlimit="10" pointer-events="none"/>
        <path d="M 530 440 L 523 443 L 530 446" fill="none" stroke="#000000"
              stroke-width="2" stroke-linejoin="round" stroke-linecap="round"
              stroke-miterlimit="10" pointer-events="none"/>
        <path d="M 530 446 L 537 449 L 530 452" fill="none" stroke="#000000"
              stroke-width="2" stroke-linejoin="round" stroke-linecap="round"
              stroke-miterlimit="10" pointer-events="none"/>
        <path d="M 530 452 L 523 455 L 530 458" fill="none" stroke="#000000"
              stroke-width="2" stroke-linejoin="round" stroke-linecap="round"
              stroke-miterlimit="10" pointer-events="none"/>
        <path d="M 530 411 L 530 421" fill="#000000" stroke="#000000"
              stroke-width="2" stroke-linecap="square" stroke-miterlimit="10"
              pointer-events="none"/>
        <path d="M 530 459 L 530 469" fill="#000000" stroke="#000000"
              stroke-width="2" stroke-linecap="square" stroke-miterlimit="10"
              pointer-events="none"/>
        <rect x="504" y="410" width="16" height="13" fill-opacity="0"
              fill="#dae2f2" stroke="none" pointer-events="none"/>
        <g fill="#000000" font-family="Arial,Helvetica" font-weight="bold"
           text-anchor="middle" font-size="12px">
            <text x="512" y="421.5">
                R2
            </text>
        </g>
        <path d="M 400 330 L 400 270 L 530 270" fill="none" stroke="#000000"
              stroke-width="2" stroke-miterlimit="10" pointer-events="none"/>
        <path d="M 530 330 L 530 410" fill="none" stroke="#000000"
              stroke-width="2" stroke-miterlimit="10" pointer-events="none"/>
        <path d="M 530 470 L 400 470 L 400 410" fill="none" stroke="#000000"
              stroke-width="2" stroke-miterlimit="10" pointer-events="none"/>
    </g>
</svg>